<svg width="633" height="92" viewBox="0 0 633 92" fill="none" xmlns="http://www.w3.org/2000/svg">
<g clip-path="url(#clip0_17_8)">
<path d="M88.1875 0.375L83.6875 85.125L50.9375 88.125L33.4375 42.75L30.6875 89H2.5625L4.8125 0.375L36.0625 -1.125L57.6875 43.875L58.6875 1.375L88.1875 0.375ZM169.812 42.125C169.812 45.9167 169.375 49.5833 168.5 53.125C167.625 56.625 166.354 59.9167 164.688 63C163.062 66.0833 161.062 68.9167 158.688 71.5C156.354 74.0417 153.708 76.2292 150.75 78.0625C147.833 79.8958 144.646 81.3333 141.188 82.375C137.729 83.375 134.062 83.875 130.188 83.875C126.438 83.875 122.854 83.3958 119.438 82.4375C116.062 81.4792 112.896 80.1458 109.938 78.4375C106.979 76.6875 104.292 74.6042 101.875 72.1875C99.5 69.7292 97.4583 67.0208 95.75 64.0625C94.0833 61.0625 92.7708 57.8542 91.8125 54.4375C90.8958 51.0208 90.4375 47.4583 90.4375 43.75C90.4375 40.125 90.875 36.5833 91.75 33.125C92.625 29.625 93.875 26.3333 95.5 23.25C97.1667 20.1667 99.1667 17.3333 101.5 14.75C103.833 12.1667 106.438 9.9375 109.312 8.0625C112.229 6.1875 115.375 4.72917 118.75 3.6875C122.125 2.64583 125.688 2.125 129.438 2.125C135.479 2.125 140.979 3.0625 145.938 4.9375C150.938 6.8125 155.188 9.5 158.688 13C162.229 16.4583 164.958 20.6667 166.875 25.625C168.833 30.5417 169.812 36.0417 169.812 42.125ZM142.062 43.75C142.062 41.9583 141.792 40.2292 141.25 38.5625C140.75 36.8542 140 35.3542 139 34.0625C138 32.7292 136.75 31.6667 135.25 30.875C133.792 30.0417 132.104 29.625 130.188 29.625C128.229 29.625 126.479 29.9792 124.938 30.6875C123.396 31.3958 122.062 32.375 120.938 33.625C119.854 34.8333 119.021 36.2708 118.438 37.9375C117.854 39.5625 117.562 41.2917 117.562 43.125C117.562 44.875 117.812 46.625 118.312 48.375C118.812 50.125 119.562 51.7083 120.562 53.125C121.562 54.5417 122.792 55.6875 124.25 56.5625C125.75 57.4375 127.479 57.875 129.438 57.875C131.396 57.875 133.146 57.5 134.688 56.75C136.271 55.9583 137.604 54.9167 138.688 53.625C139.771 52.2917 140.604 50.7708 141.188 49.0625C141.771 47.3542 142.062 45.5833 142.062 43.75ZM248.5 2.375L225.625 86.875L194.625 88.625L166.5 7L196.125 4.25L208.125 51.75L219.75 0.5L248.5 2.375ZM316.938 39.5C316.938 43.125 316.688 46.75 316.188 50.375C309.062 50.8333 301.979 51.5833 294.938 52.625C287.896 53.625 280.854 54.625 273.812 55.625C274.896 58.625 276.583 61.0208 278.875 62.8125C281.208 64.6042 283.979 65.5 287.188 65.5C288.854 65.5 290.667 65.1875 292.625 64.5625C294.625 63.9375 296.604 63.1667 298.562 62.25C300.521 61.2917 302.396 60.2708 304.188 59.1875C305.979 58.1042 307.521 57.125 308.812 56.25L305.812 84.625C304.188 85.875 302.417 86.9375 300.5 87.8125C298.625 88.6875 296.667 89.3958 294.625 89.9375C292.583 90.4792 290.521 90.875 288.438 91.125C286.354 91.375 284.312 91.5 282.312 91.5C278.188 91.5 274.417 90.9375 271 89.8125C267.583 88.6875 264.479 87.125 261.688 85.125C258.938 83.0833 256.521 80.6875 254.438 77.9375C252.354 75.1875 250.625 72.1875 249.25 68.9375C247.875 65.6875 246.833 62.25 246.125 58.625C245.417 55 245.062 51.3333 245.062 47.625C245.062 43.75 245.417 39.875 246.125 36C246.833 32.125 247.896 28.3958 249.312 24.8125C250.771 21.2292 252.583 17.9167 254.75 14.875C256.958 11.7917 259.521 9.10417 262.438 6.8125C265.354 4.52083 268.646 2.72917 272.312 1.4375C276.021 0.145833 280.104 -0.5 284.562 -0.5C288.271 -0.5 291.646 0.0208333 294.688 1.0625C297.771 2.0625 300.5 3.47917 302.875 5.3125C305.292 7.10417 307.375 9.25 309.125 11.75C310.917 14.25 312.375 17 313.5 20C314.667 22.9583 315.521 26.1042 316.062 29.4375C316.646 32.7292 316.938 36.0833 316.938 39.5ZM291.938 36.25C291.938 35.0833 291.812 33.8958 291.562 32.6875C291.312 31.4375 290.896 30.3125 290.312 29.3125C289.771 28.3125 289.042 27.5 288.125 26.875C287.208 26.2083 286.062 25.875 284.688 25.875C283.021 25.875 281.542 26.3333 280.25 27.25C279 28.125 277.917 29.25 277 30.625C276.083 31.9583 275.333 33.4167 274.75 35C274.167 36.5833 273.729 38.0417 273.438 39.375L291.938 37.625V36.25ZM375.875 56.875L373.25 84.625L320.625 88.75L322.625 -0.5H355.125L350.5 56.875H375.875ZM442.875 58C442.875 63.7083 441.875 68.6458 439.875 72.8125C437.917 76.9375 435.208 80.3542 431.75 83.0625C428.333 85.7292 424.312 87.7083 419.688 89C415.104 90.25 410.167 90.875 404.875 90.875C402.833 90.875 400.583 90.6042 398.125 90.0625C395.708 89.5208 393.25 88.8542 390.75 88.0625C388.25 87.2292 385.833 86.3542 383.5 85.4375C381.208 84.4792 379.167 83.5833 377.375 82.75L380.125 58.25C383.667 60.375 387.583 62 391.875 63.125C396.208 64.2083 400.458 64.75 404.625 64.75C405.417 64.75 406.375 64.7292 407.5 64.6875C408.625 64.6042 409.688 64.4167 410.688 64.125C411.729 63.7917 412.604 63.3125 413.312 62.6875C414.021 62.0625 414.375 61.1667 414.375 60C414.375 59.2083 414.125 58.5417 413.625 58C413.125 57.4167 412.479 56.9583 411.688 56.625C410.896 56.25 410 55.9792 409 55.8125C408 55.6042 407.021 55.4583 406.062 55.375C405.104 55.2917 404.208 55.25 403.375 55.25C402.542 55.25 401.875 55.25 401.375 55.25C397.792 55.25 394.521 54.6875 391.562 53.5625C388.646 52.4375 386.125 50.8542 384 48.8125C381.917 46.7292 380.292 44.2292 379.125 41.3125C377.958 38.3542 377.375 35.0833 377.375 31.5C377.375 26.5833 378.354 22.1875 380.312 18.3125C382.312 14.3958 384.958 11.0833 388.25 8.375C391.583 5.625 395.396 3.52083 399.688 2.0625C403.979 0.604167 408.417 -0.125 413 -0.125C415.042 -0.125 417.146 -0.0416667 419.312 0.125C421.479 0.25 423.625 0.5 425.75 0.875C427.917 1.25 430.021 1.72917 432.062 2.3125C434.104 2.89583 436.042 3.625 437.875 4.5L435.5 29.875C432.667 28.9167 429.688 28.125 426.562 27.5C423.479 26.8333 420.458 26.5 417.5 26.5C416.958 26.5 416.25 26.5208 415.375 26.5625C414.542 26.5625 413.646 26.625 412.688 26.75C411.771 26.8333 410.833 26.9792 409.875 27.1875C408.917 27.3958 408.062 27.6875 407.312 28.0625C406.562 28.3958 405.958 28.8542 405.5 29.4375C405.042 30.0208 404.833 30.7083 404.875 31.5C404.917 32.4167 405.25 33.125 405.875 33.625C406.542 34.125 407.375 34.5 408.375 34.75C409.417 34.9583 410.542 35.0625 411.75 35.0625C413 35.0625 414.229 35.0417 415.438 35C416.646 34.9167 417.771 34.8542 418.812 34.8125C419.854 34.7292 420.708 34.7083 421.375 34.75C424.708 34.9583 427.708 35.6667 430.375 36.875C433.042 38.0833 435.292 39.6875 437.125 41.6875C439 43.6875 440.417 46.0833 441.375 48.875C442.375 51.625 442.875 54.6667 442.875 58ZM471.125 77.125C471.125 78.9583 470.771 80.6667 470.062 82.25C469.354 83.8333 468.396 85.2292 467.188 86.4375C466.021 87.6042 464.646 88.5417 463.062 89.25C461.479 89.9167 459.792 90.25 458 90.25C456.167 90.25 454.458 89.9167 452.875 89.25C451.292 88.5417 449.896 87.6042 448.688 86.4375C447.521 85.2292 446.583 83.8333 445.875 82.25C445.208 80.6667 444.875 78.9583 444.875 77.125C444.875 75.3333 445.208 73.625 445.875 72C446.583 70.375 447.521 68.9792 448.688 67.8125C449.896 66.6042 451.292 65.6458 452.875 64.9375C454.458 64.2292 456.167 63.875 458 63.875C459.792 63.875 461.479 64.2292 463.062 64.9375C464.646 65.6458 466.021 66.6042 467.188 67.8125C468.396 68.9792 469.354 70.375 470.062 72C470.771 73.625 471.125 75.3333 471.125 77.125ZM550.75 77.25C548.792 79.7083 546.375 81.8542 543.5 83.6875C540.625 85.5208 537.542 87.0417 534.25 88.25C530.958 89.4583 527.583 90.3542 524.125 90.9375C520.667 91.5625 517.375 91.875 514.25 91.875C508.208 91.875 502.646 90.7917 497.562 88.625C492.479 86.4583 488.083 83.4792 484.375 79.6875C480.708 75.8542 477.833 71.3542 475.75 66.1875C473.667 61.0208 472.625 55.4583 472.625 49.5C472.625 44.9583 473.146 40.5208 474.188 36.1875C475.229 31.8125 476.708 27.7083 478.625 23.875C480.583 20 482.958 16.4583 485.75 13.25C488.542 10 491.708 7.20833 495.25 4.875C498.792 2.54167 502.667 0.729167 506.875 -0.5625C511.083 -1.85417 515.583 -2.5 520.375 -2.5C522.167 -2.5 524.083 -2.41667 526.125 -2.25C528.167 -2.125 530.188 -1.875 532.188 -1.5C534.229 -1.16667 536.208 -0.6875 538.125 -0.0625C540.042 0.5625 541.792 1.33333 543.375 2.25L541.625 26.125C539.292 25.25 536.875 24.6667 534.375 24.375C531.917 24.0417 529.5 23.875 527.125 23.875C523.792 23.875 520.667 24.3958 517.75 25.4375C514.875 26.4375 512.354 27.8958 510.188 29.8125C508.062 31.7292 506.375 34.0625 505.125 36.8125C503.875 39.5625 503.25 42.6667 503.25 46.125C503.25 48.2917 503.542 50.3958 504.125 52.4375C504.708 54.4375 505.583 56.2292 506.75 57.8125C507.958 59.3542 509.438 60.6042 511.188 61.5625C512.979 62.5208 515.042 63 517.375 63C518.958 63 520.583 62.7917 522.25 62.375C523.958 61.9583 525.417 61.25 526.625 60.25L526.875 55.375L511.875 55.125L512.625 36.375C518.833 36.1667 525.042 36 531.25 35.875C537.458 35.7083 543.708 35.5 550 35.25L550.75 77.25ZM631 77.25C629.042 79.7083 626.625 81.8542 623.75 83.6875C620.875 85.5208 617.792 87.0417 614.5 88.25C611.208 89.4583 607.833 90.3542 604.375 90.9375C600.917 91.5625 597.625 91.875 594.5 91.875C588.458 91.875 582.896 90.7917 577.812 88.625C572.729 86.4583 568.333 83.4792 564.625 79.6875C560.958 75.8542 558.083 71.3542 556 66.1875C553.917 61.0208 552.875 55.4583 552.875 49.5C552.875 44.9583 553.396 40.5208 554.438 36.1875C555.479 31.8125 556.958 27.7083 558.875 23.875C560.833 20 563.208 16.4583 566 13.25C568.792 10 571.958 7.20833 575.5 4.875C579.042 2.54167 582.917 0.729167 587.125 -0.5625C591.333 -1.85417 595.833 -2.5 600.625 -2.5C602.417 -2.5 604.333 -2.41667 606.375 -2.25C608.417 -2.125 610.438 -1.875 612.438 -1.5C614.479 -1.16667 616.458 -0.6875 618.375 -0.0625C620.292 0.5625 622.042 1.33333 623.625 2.25L621.875 26.125C619.542 25.25 617.125 24.6667 614.625 24.375C612.167 24.0417 609.75 23.875 607.375 23.875C604.042 23.875 600.917 24.3958 598 25.4375C595.125 26.4375 592.604 27.8958 590.438 29.8125C588.312 31.7292 586.625 34.0625 585.375 36.8125C584.125 39.5625 583.5 42.6667 583.5 46.125C583.5 48.2917 583.792 50.3958 584.375 52.4375C584.958 54.4375 585.833 56.2292 587 57.8125C588.208 59.3542 589.688 60.6042 591.438 61.5625C593.229 62.5208 595.292 63 597.625 63C599.208 63 600.833 62.7917 602.5 62.375C604.208 61.9583 605.667 61.25 606.875 60.25L607.125 55.375L592.125 55.125L592.875 36.375C599.083 36.1667 605.292 36 611.5 35.875C617.708 35.7083 623.958 35.5 630.25 35.25L631 77.25Z" fill="#2563EB"/>
</g>
<defs>
<clipPath id="clip0_17_8">
<rect width="633" height="92" fill="white"/>
</clipPath>
</defs>
</svg>
